IKResults C03
version=1
nRows=22
nColumns=24
inDegrees=yes

Units are S.I. units (second, meters, Newtons, ...)
If the header above contains a line with 'inDegrees', this indicates whether rotational values are in degrees (yes) or radians (no).

endheader
time	pelvis_tilt	pelvis_list	pelvis_rotation	pelvis_tx	pelvis_ty	pelvis_tz	hip_flexion_r	hip_adduction_r	hip_rotation_r	knee_angle_r	ankle_angle_r	subtalar_angle_r	mtp_angle_r	hip_flexion_l	hip_adduction_l	hip_rotation_l	knee_angle_l	ankle_angle_l	subtalar_angle_l	mtp_angle_l	lumbar_extension	lumbar_bending	lumbar_rotation
      8.46000000	      5.05217437	      6.87271888	    -92.57590189	     -0.14665026	      0.93044320	     -5.36162606	     -1.31832841	     -3.25562784	     -2.46681994	    -41.57925933	      0.63494228	     -2.81068676	      0.00000000	     32.95272862	      7.26605831	      4.29342848	    -20.61785269	     -3.58776305	     -9.26260818	      0.00000000	     -8.56370395	     -9.64566588	      8.27568495
      8.47000000	      5.50669634	      7.00125248	    -92.58442747	     -0.14568027	      0.93240336	     -5.34895360	      0.78863544	     -4.24124316	     -2.92909634	    -45.19241885	     -2.02850132	     -2.28343488	      0.00000000	     32.43764034	      7.90469388	      4.23616134	    -20.98740169	     -2.72135952	     -9.62798909	      0.00000000	     -8.39329708	    -10.10697059	      7.89021346
      8.48000000	      5.75062181	      6.92826845	    -92.25816509	     -0.14435425	      0.93468107	     -5.33550083	      2.50332126	     -4.94116966	     -3.54644734	    -48.42196569	     -5.94267301	     -4.06148376	      0.00000000	     31.48926603	      8.48848167	      4.42651244	    -21.08443638	     -2.04079364	     -9.49238778	      0.00000000	     -8.42995761	    -10.35577303	      7.16465249
      8.49000000	      5.97552541	      6.82830580	    -91.92975762	     -0.14286470	      0.93696244	     -5.32241678	      4.31270182	     -5.67014281	     -4.14965880	    -51.50024162	     -9.09436553	     -4.15172575	      0.00000000	     30.61378763	      8.96238538	      3.83190113	    -21.31117881	     -1.09637994	     -9.30521744	      0.00000000	     -8.73047819	    -10.48120946	      6.55099545
      8.50000000	      5.95148302	      6.70286444	    -91.82220443	     -0.14222534	      0.93882251	     -5.30925105	      6.17292085	     -6.00753592	     -4.35506627	    -54.28478703	    -14.39560597	     -8.24320170	      0.00000000	     29.45653605	      9.06190152	      3.86308617	    -21.15175147	      0.16007847	     -8.15767464	      0.00000000	     -8.91458359	    -10.45324682	      6.10328744
      8.51000000	      5.81324916	      6.66823199	    -91.44237973	     -0.14135335	      0.94042144	     -5.29705972	      8.21523824	     -6.20620244	     -4.70882421	    -56.81968007	    -18.87052979	    -11.27722468	      0.00000000	     28.42183786	      9.09682498	      3.95463716	    -20.91819652	      1.31268894	     -7.27592603	      0.00000000	     -8.99080432	    -10.17270230	      5.39117296
      8.52000000	      5.69199506	      6.57264852	    -91.31486243	     -0.14060538	      0.94215002	     -5.28452758	     10.11063329	     -6.40938181	     -5.08518071	    -59.22127711	    -21.21526106	    -14.49833295	      0.00000000	     27.34641412	      9.01680030	      3.55904969	    -20.78321142	      2.62727558	     -6.17432069	      0.00000000	     -9.18592141	     -9.91241116	      4.97462440
      8.53000000	      5.58008218	      6.50701565	    -91.23422171	     -0.14019923	      0.94384092	     -5.27215389	     12.11506122	     -6.54356065	     -5.33002663	    -61.53998066	    -20.18769897	    -16.50878586	      0.00000000	     26.14012560	      8.87783782	      3.02283405	    -20.32392627	      3.57711584	     -5.80006512	      0.00000000	     -9.26941428	     -9.73312275	      4.61785578
      8.54000000	      5.47378840	      6.44250314	    -91.22699225	     -0.13979843	      0.94547887	     -5.25985337	     14.11505659	     -6.62194672	     -5.45611113	    -63.62642726	    -18.31140742	    -18.53917263	      0.00000000	     25.07569146	      8.83379768	      3.25771119	    -20.14775253	      4.47289828	     -5.53854048	      0.00000000	     -9.35027121	     -9.47466103	      4.31275332
      8.55000000	      5.45182658	      6.36922595	    -91.17943097	     -0.13936997	      0.94725439	     -5.24748930	     16.11061943	     -6.80694938	     -5.63398650	    -65.50381054	    -17.06094456	    -20.93521335	      0.00000000	     23.88156555	      8.88284939	      3.41623959	    -19.78304505	      5.60475843	     -4.54414591	      0.00000000	     -9.52308403	     -9.28143251	      3.84154293
      8.56000000	      5.39066072	      6.29180441	    -91.19171994	     -0.13929452	      0.94905300	     -5.23521006	     18.06033235	     -6.89081999	     -5.73923588	    -66.95772211	    -14.01373622	    -22.56596240	      0.00000000	     22.65566934	      8.87089759	      3.46956796	    -19.31561545	      6.29539085	     -4.67784167	      0.00000000	     -9.55962503	     -9.15820594	      3.65988661
      8.57000000	      5.34278931	      6.17671813	    -91.14133735	     -0.13906297	      0.95066162	     -5.22292858	     19.93521580	     -6.88043049	     -5.68112344	    -68.06402300	    -11.55967003	    -23.75050805	      0.00000000	     21.49067951	      8.85274158	      3.44484074	    -19.03728613	      7.02611526	     -4.52193230	      0.00000000	     -9.73628180	     -8.98665889	      3.30988470
      8.58000000	      5.35350692	      6.08691378	    -91.10751842	     -0.13893281	      0.95213838	     -5.21062667	     21.87122270	     -7.00645282	     -5.70954531	    -68.91785518	     -9.70904197	    -24.64212453	      0.00000000	     20.27512673	      8.86557602	      3.49726648	    -18.62781362	      7.81527128	     -4.08917447	      0.00000000	     -9.79125618	     -8.92840816	      2.98341833
      8.59000000	      5.30466037	      5.92286538	    -90.95698237	     -0.13834578	      0.95372892	     -5.19819776	     23.61609746	     -7.13755652	     -5.85706169	    -69.46164837	     -7.55617099	    -25.53472587	      0.00000000	     18.84719467	      8.88198614	      3.80513552	    -17.97269850	      8.53452559	     -3.66155222	      0.00000000	    -10.02096674	     -8.62982507	      2.56467994
      8.60000000	      5.10924759	      5.71201499	    -90.73938639	     -0.13822842	      0.95502874	     -5.18566045	     25.16469587	     -6.95791814	     -5.95039326	    -69.59526346	     -5.42414563	    -26.55698199	      0.00000000	     17.73989280	      8.57661308	      2.91231129	    -18.02840974	      9.40017890	     -2.53993198	      0.00000000	    -10.36325125	     -8.37745313	      2.14647748
      8.61000000	      5.00029323	      5.50446525	    -90.51411383	     -0.13774544	      0.95599301	     -5.17319127	     26.71552222	     -6.97211976	     -6.08505554	    -69.54117232	     -3.93805599	    -27.19000529	      0.00000000	     16.42020785	      8.48871904	      2.73663273	    -17.59351176	     10.42495081	     -1.47110557	      0.00000000	    -10.64067533	     -8.07399372	      1.64850779
      8.62000000	      4.90140348	      5.23982099	    -90.22218448	     -0.13721201	      0.95700625	     -5.16057802	     28.10105282	     -7.01952041	     -6.23959774	    -69.19105148	     -2.66709262	    -27.28001310	      0.00000000	     14.99845160	      8.39426180	      2.71818168	    -17.17528845	     11.52921708	      0.02101118	      0.00000000	    -10.84371826	     -7.70273708	      1.15037866
      8.63000000	      4.68793424	      5.03391302	    -89.80593459	     -0.13666381	      0.95763925	     -5.14821895	     29.41876296	     -6.98354556	     -6.55202394	    -68.50238478	     -1.36959235	    -27.69409910	      0.00000000	     13.58596342	      8.22396284	      2.54312291	    -16.57340169	     12.18141765	      0.62247021	      0.00000000	    -11.26578996	     -7.43102103	      0.72572479
      8.64000000	      4.43424213	      4.68040360	    -89.43857104	     -0.13604605	      0.95817924	     -5.13547276	     30.44646199	     -6.92566975	     -6.80963360	    -67.47778981	     -0.37126336	    -27.75841947	      0.00000000	     12.43535460	      8.05596115	      2.90929518	    -16.77695696	     13.25662103	      1.00901953	      0.00000000	    -11.68874402	     -6.92259305	      0.23729563
      8.65000000	      4.30565425	      4.39148180	    -89.20959318	     -0.13586603	      0.95855900	     -5.12262759	     31.48815359	     -6.89333417	     -6.89402749	    -66.24601011	      1.02695229	    -26.80655130	      0.00000000	     11.15325700	      7.95269017	      3.02977536	    -16.65250101	     14.30552164	      2.11714437	      0.00000000	    -11.91402700	     -6.57510679	     -0.24635487
      8.66000000	      4.11811935	      4.17784867	    -88.82477723	     -0.13556603	      0.95867105	     -5.11047476	     32.53675600	     -6.91772505	     -7.16773243	    -64.71319218	      1.16104824	    -26.81142259	      0.00000000	      9.90703325	      7.80121580	      3.29049233	    -16.40272813	     14.56272095	      2.08320353	      0.00000000	    -12.25128827	     -6.17266007	     -0.35325681
      8.67000000	      4.02333735	      3.96678253	    -88.40349670	     -0.13489847	      0.95856219	     -5.09797659	     33.44733460	     -7.06783962	     -7.39446057	    -62.96221015	      1.83481133	    -26.87321465	      0.00000000	      9.01539129	      7.88380624	      4.53491128	    -16.85533128	     15.80589603	      1.48225275	      0.00000000	    -12.54398819	     -5.89843127	     -1.00975455
